<svg width="128" height="128" viewBox="0 0 128 128" fill="none" xmlns="http://www.w3.org/2000/svg">
<path d="M125.835 16.3582C126.349 29.6152 127 49.3031 127 64C127 78.6969 126.349 98.3848 125.835 111.642C125.535 119.37 119.37 125.535 111.642 125.835C98.3848 126.349 78.6969 127 64 127C49.3031 127 29.6152 126.349 16.3582 125.835C8.62971 125.535 2.46493 119.37 2.16517 111.642C1.65096 98.3848 1 78.6969 1 64C1 49.3031 1.65096 29.6152 2.16517 16.3582C2.46493 8.62971 8.62971 2.46493 16.3582 2.16517C29.6152 1.65096 49.3031 1 64 1C78.6969 1 98.3848 1.65096 111.642 2.16517C119.37 2.46493 125.535 8.62971 125.835 16.3582Z" stroke="#2D5652" stroke-width="2"/>
<path d="M53.5273 70.4853V98.4126C53.5273 103.75 57.1268 107.349 62.464 107.349H62.7122V108.218H34.9091V107.349H35.1573C40.4945 107.349 44.0941 103.75 44.0941 98.4126V70.4853V31.1389C44.0941 25.8017 40.4945 22.2022 35.1573 22.2022H34.9091V21.3333H93.1219L97.2179 38.7103C97.0938 38.7103 96.3491 38.7103 96.225 38.3379C95.4802 36.352 91.5084 22.2022 78.7239 22.2022H53.5273V70.4853Z" fill="#2D5652"/>
<path d="M52.3594 96.9697C52.3594 71.3542 73.2711 68.546 73.2711 68.546C80.4848 66.9091 81.0597 61.5098 81.8044 59.5239C81.9285 59.1515 82.5491 59.1515 82.5491 59.1515C82.0526 64.4887 81.8044 65.1947 81.8044 69.1666C81.8044 73.1384 82.0526 73.0609 82.5491 79.5152C82.5491 79.5152 81.9285 79.5152 81.8044 79.0187C81.0655 75.0779 79.5152 69.4166 73.697 69.4166C73.697 69.4166 73.3672 69.4155 73.2711 69.4148C71.7576 69.4166 53.3419 73.1706 53.3419 96.9697C53.3419 107.319 52.3594 97.3534 52.3594 96.9697Z" fill="#2D5652"/>
</svg>
