<svg width="201" height="75" viewBox="0 0 201 75" fill="none" xmlns="http://www.w3.org/2000/svg">
<path d="M43.2852 41.8455C34.1273 41.8455 29.5484 34.4745 29.5484 27.1594C29.5484 19.7885 34.1273 12.4734 43.2852 12.4734C52.443 12.4734 57.022 19.7885 57.022 27.1594C57.022 34.4745 52.443 41.8455 43.2852 41.8455ZM41.3866 13.2551C35.4117 13.2551 32.8989 18.0016 32.8989 23.6415C32.8989 31.515 37.9245 41.0637 45.1838 41.0637C51.1587 41.0637 53.6715 36.3173 53.6715 30.7332C53.6715 22.8039 48.6459 13.2551 41.3866 13.2551Z" fill="white"/>
<path d="M135.368 3.7064L140.505 9.79302L140.394 9.96054L133.804 5.4933L135.368 3.7064ZM138.607 41.5663C129.449 41.5663 124.87 34.1395 124.87 26.8244C124.87 17.164 131.627 12.6967 137.992 12.6967C143.688 12.6967 149.105 16.2705 149.105 22.8597C149.105 27.3269 145.81 31.6267 138.663 31.6267C134.139 31.6267 131.682 28.2204 131.236 24.5349L131.571 24.3674C131.962 27.8853 134.307 31.2358 138.718 31.2358C143.297 31.2358 145.698 27.1594 145.698 22.8597C145.698 16.7731 141.231 13.1993 136.876 13.1993C132.743 13.1993 128.723 16.438 128.723 23.9207C128.723 31.5708 133.525 40.4495 140.84 40.4495C145.922 40.4495 148.435 35.5355 148.714 33.4135L149.105 33.5252C147.765 38.495 144.47 41.5663 138.607 41.5663Z" fill="white"/>
<path d="M161.417 18.895V37.4899C161.417 39.3885 162.645 40.617 164.544 40.617H165.493V41.0079H153.152V40.617H154.157C156.056 40.617 157.284 39.3885 157.284 37.4899V16.6056C157.284 14.707 156.056 13.646 154.213 13.9811H154.102V13.5902L161.417 12.4734V18.5041C164.041 15.042 167.112 11.915 170.184 11.915C171.58 11.915 173.422 12.6409 173.422 14.2603C173.422 15.3212 172.529 16.3822 170.965 16.3822C168.62 16.3822 169.234 13.7019 167.615 13.7019C166.275 13.7019 163.315 16.4939 161.417 18.895Z" fill="white"/>
<path d="M189.976 41.5663C180.818 41.5663 176.239 34.1395 176.239 26.8244C176.239 17.164 182.996 12.6967 189.361 12.6967C195.057 12.6967 200.474 16.2705 200.474 22.8597C200.474 27.3269 197.179 31.6267 190.031 31.6267C185.508 31.6267 183.051 28.2204 182.605 24.5349L182.94 24.3674C183.331 27.8853 185.676 31.2358 190.087 31.2358C194.666 31.2358 197.067 27.1594 197.067 22.8597C197.067 16.7731 192.6 13.1993 188.245 13.1993C184.112 13.1993 180.092 16.438 180.092 23.9207C180.092 31.5708 184.894 40.4495 192.209 40.4495C197.291 40.4495 199.804 35.5355 200.083 33.4135L200.474 33.5252C199.133 38.495 195.839 41.5663 189.976 41.5663Z" fill="white"/>
<path d="M82.3324 35.8144V16.5495C82.3324 14.7068 81.1039 13.4783 79.2612 13.4783H79.1495V13.0874H86.4646V34.4743C86.4646 38.4948 87.1905 40.1142 88.1957 40.1142C88.9216 40.1142 89.815 39.2766 90.7643 37.8805L90.9877 38.0481C89.6475 40.2817 87.9723 41.2868 86.4088 41.2868C84.2868 41.2868 82.4999 39.4441 82.3324 36.317C80.5455 40.17 76.4133 41.9011 72.4486 41.9011C67.7022 41.9011 63.2349 39.4441 63.2349 35.256C63.2349 30.2862 67.8697 18.3364 67.8697 18.3364C67.8697 18.3364 75.1391 1.17265 61.448 1.17265C51.5814 1.17265 52.4539 8.72505 52.0176 10.0338L51.5814 9.59759C52.0176 7.85254 51.7592 1.44632e-06 63.2349 0C78.1929 -1.8852e-06 72.0019 18.3364 72.0019 18.3364C72.0019 18.3364 67.1996 30.4538 67.1996 35.7586C67.1996 39.1649 70.2708 41.231 73.8446 41.231C76.9159 41.231 80.3221 39.6116 82.3324 35.8144Z" fill="white"/>
<path d="M8.67845 23.8579V36.422C8.67845 38.8231 10.2978 40.4425 12.699 40.4425H12.8106V40.8334H0.302368V40.4425H0.414049C2.81519 40.4425 4.43457 38.8231 4.43457 36.422V23.8579V6.15642C4.43457 3.75527 2.81519 2.1359 0.414049 2.1359H0.302368V1.74502H26.4916L28.3343 9.56269C28.2785 9.56269 27.9434 9.56269 27.8876 9.39517C27.5525 8.50172 25.7656 2.1359 20.0141 2.1359H8.67845V23.8579Z" fill="white"/>
<path d="M8.15302 35.7728C8.15302 24.2487 17.5609 22.9854 17.5609 22.9854C20.8063 22.249 21.0649 19.8199 21.4 18.9264C21.4558 18.7589 21.735 18.7589 21.735 18.7589C21.5116 21.1601 21.4 21.4777 21.4 23.2646C21.4 25.0515 21.5116 25.0165 21.735 27.9203C21.735 27.9203 21.4558 27.9203 21.4 27.6969C21.0675 25.924 20.3701 23.3771 17.7525 23.3771C17.7525 23.3771 17.6042 23.3766 17.5609 23.3762C16.88 23.3771 8.59503 25.0659 8.59503 35.7728C8.59503 40.429 8.15302 35.9454 8.15302 35.7728Z" fill="white"/>
<path d="M106.965 35.361C98.5894 35.361 94.4571 30.7262 94.4571 26.0356C94.4571 21.4009 98.5894 16.7661 106.965 16.7661C110.204 16.7661 112.829 17.492 114.783 18.6088C116.849 16.7661 117.966 15.3701 117.966 14.0299C117.966 13.1365 117.519 12.2989 116.57 11.3496C116.235 11.0145 116.067 10.6795 116.067 10.3445C116.067 9.45101 117.184 8.72508 118.301 8.72508C119.25 8.72508 120.144 9.33932 120.144 10.9029C120.144 13.6949 118.636 15.5376 115.118 18.7764C118.022 20.5633 119.418 23.2995 119.418 26.0356C119.418 30.112 116.291 34.1883 109.925 35.1376C114.402 39.2629 121.818 43.1891 121.818 54.968C121.818 60.203 119.201 74.5994 100.442 74.9903C83.4316 75.3447 74.7029 65.8743 74.7028 57.9904C74.7028 50.6055 84.3004 44.9342 93.0255 44.9342C101.314 44.9342 107.468 49.0908 109.367 53.0555L108.976 53.223C107.133 49.4258 101.314 45.325 93.0255 45.325C86.0455 45.325 77.7566 49.7329 78.1929 57.9904C78.7246 68.0556 90.4446 75.4563 100.442 74.5994C115.711 73.2907 118.571 65.0018 119.201 54.968C119.749 46.2429 112.657 37.4668 108.976 35.2493C108.361 35.3052 107.691 35.361 106.965 35.361ZM108.808 25.4214L111.656 22.2385L111.991 22.406L109.534 25.198C107.915 26.9291 107.3 28.4926 107.3 29.9445C107.3 31.6197 108.082 33.1274 109.367 34.5792C114.057 34.3 116.012 31.508 116.012 28.2693C116.012 23.4111 111.656 17.5479 105.29 17.5479C100.041 17.5479 97.8634 20.4516 97.8634 23.9137C97.8634 28.716 102.219 34.5234 108.529 34.5792C107.468 33.0715 106.742 31.508 106.742 29.9445C106.742 28.4926 107.356 27.0408 108.808 25.4214Z" fill="white"/>
<path d="M132.608 59.0258C131.975 59.0258 131.509 58.8583 131.212 58.5233C130.923 58.1882 130.788 57.681 130.807 57.0016C130.807 56.9458 130.83 56.9178 130.877 56.9178H131.351C131.398 56.9178 131.421 56.9458 131.421 57.0016C131.412 57.5135 131.5 57.8858 131.686 58.1184C131.872 58.3418 132.184 58.4535 132.622 58.4535C133.05 58.4535 133.362 58.3604 133.557 58.1743C133.762 57.9881 133.864 57.6996 133.864 57.3087C133.864 57.0109 133.804 56.7643 133.683 56.5688C133.571 56.3734 133.375 56.1873 133.096 56.0104L131.882 55.2845C131.519 55.0612 131.258 54.8192 131.1 54.5586C130.942 54.298 130.863 53.9723 130.863 53.5814C130.863 53.0881 131.012 52.7112 131.309 52.4506C131.616 52.19 132.045 52.0597 132.594 52.0597C133.199 52.0597 133.645 52.2086 133.934 52.5064C134.232 52.8043 134.367 53.2324 134.339 53.7908C134.339 53.8466 134.315 53.8745 134.269 53.8745H133.808C133.79 53.8745 133.771 53.8699 133.752 53.8606C133.734 53.842 133.729 53.8094 133.738 53.7629C133.748 53.3999 133.659 53.1207 133.473 52.9253C133.287 52.7298 132.994 52.6321 132.594 52.6321C132.231 52.6321 131.952 52.7158 131.756 52.8834C131.57 53.0416 131.477 53.2743 131.477 53.5814C131.477 53.8699 131.533 54.0979 131.644 54.2654C131.756 54.4236 131.956 54.5958 132.245 54.7819L133.459 55.5358C133.822 55.7685 134.078 56.0151 134.227 56.2757C134.385 56.527 134.464 56.8667 134.464 57.2948C134.464 57.8718 134.311 58.3046 134.004 58.5931C133.706 58.8816 133.241 59.0258 132.608 59.0258Z" fill="white"/>
<path d="M138.396 59.0258C137.903 59.0258 137.545 58.8816 137.321 58.5931C137.098 58.2952 136.986 57.8066 136.986 57.1272V52.7438H136.149C136.093 52.7438 136.065 52.7205 136.065 52.674V52.2552C136.065 52.1993 136.093 52.1714 136.149 52.1714H137L137.07 50.3705C137.079 50.324 137.107 50.3007 137.154 50.3007H137.531C137.577 50.3007 137.601 50.324 137.601 50.3705V52.1714H139.36C139.415 52.1714 139.443 52.1993 139.443 52.2552V52.674C139.443 52.7205 139.415 52.7438 139.36 52.7438H137.601V57.1133C137.601 57.5879 137.67 57.9323 137.81 58.1463C137.95 58.3511 138.182 58.4535 138.508 58.4535C138.657 58.4535 138.81 58.4348 138.969 58.3976C139.127 58.3604 139.271 58.3139 139.401 58.258C139.457 58.2301 139.485 58.2534 139.485 58.3278V58.7327C139.485 58.7885 139.462 58.8211 139.415 58.8304C139.285 58.8955 139.127 58.9421 138.941 58.97C138.764 59.0072 138.582 59.0258 138.396 59.0258Z" fill="white"/>
<path d="M142.958 59.0258C142.483 59.0258 142.13 58.8769 141.897 58.5791C141.664 58.272 141.548 57.788 141.548 57.1272V52.2552C141.548 52.1993 141.571 52.1714 141.618 52.1714H142.078C142.134 52.1714 142.162 52.1993 142.162 52.2552V57.0993C142.162 57.5926 142.237 57.9416 142.386 58.1463C142.544 58.3418 142.781 58.4395 143.097 58.4395C143.442 58.4395 143.772 58.3232 144.089 58.0905C144.405 57.8485 144.731 57.5181 145.066 57.0993L145.094 57.6996C144.749 58.1091 144.4 58.4348 144.047 58.6768C143.702 58.9095 143.339 59.0258 142.958 59.0258ZM145.122 58.9141C145.066 58.9141 145.038 58.8862 145.038 58.8304C145.019 58.6163 145.001 58.393 144.982 58.1603C144.973 57.9183 144.968 57.7089 144.968 57.5321L144.94 57.3785V52.2552C144.94 52.1993 144.964 52.1714 145.01 52.1714H145.471C145.527 52.1714 145.554 52.1993 145.554 52.2552V57.2948C145.554 57.5926 145.559 57.8671 145.568 58.1184C145.578 58.3697 145.587 58.6024 145.596 58.8164C145.606 58.8816 145.582 58.9141 145.527 58.9141H145.122Z" fill="white"/>
<path d="M149.421 59.0258C148.928 59.0258 148.551 58.8676 148.29 58.5512C148.039 58.2254 147.913 57.7182 147.913 57.0295V54.2933C147.913 53.5302 148.081 52.9671 148.416 52.6042C148.76 52.2412 149.221 52.0597 149.798 52.0597C150.114 52.0597 150.417 52.1109 150.705 52.2133C151.003 52.3064 151.278 52.432 151.529 52.5902L151.543 53.1905C151.245 53.0044 150.961 52.8694 150.691 52.7857C150.421 52.6926 150.161 52.646 149.91 52.646C149.481 52.646 149.142 52.781 148.891 53.0509C148.649 53.3115 148.528 53.7489 148.528 54.3631V57.0295C148.528 57.5414 148.616 57.9044 148.793 58.1184C148.97 58.3325 149.23 58.4395 149.575 58.4395C149.9 58.4395 150.217 58.3232 150.524 58.0905C150.84 57.8578 151.171 57.5367 151.515 57.1272V57.7415C151.161 58.151 150.822 58.4674 150.496 58.6908C150.17 58.9141 149.812 59.0258 149.421 59.0258ZM151.585 58.9141C151.529 58.9141 151.501 58.8816 151.501 58.8164C151.482 58.6117 151.464 58.3883 151.445 58.1463C151.427 57.9044 151.417 57.7043 151.417 57.5461L151.389 57.3785V49.4631C151.389 49.4073 151.417 49.3794 151.473 49.3794H151.92C151.976 49.3794 152.004 49.4073 152.004 49.4631V57.3227C152.004 57.6112 152.008 57.8857 152.018 58.1463C152.036 58.3976 152.05 58.6163 152.059 58.8025C152.069 58.8769 152.046 58.9141 151.99 58.9141H151.585Z" fill="white"/>
<path d="M154.615 58.9141C154.569 58.9141 154.546 58.8862 154.546 58.8304V52.2552C154.546 52.1993 154.569 52.1714 154.615 52.1714H155.076C155.132 52.1714 155.16 52.1993 155.16 52.2552V58.8304C155.16 58.8862 155.132 58.9141 155.076 58.9141H154.615ZM154.867 50.8033C154.718 50.8033 154.601 50.7661 154.518 50.6916C154.443 50.6079 154.406 50.4962 154.406 50.3566V50.2449C154.406 50.1053 154.443 49.9983 154.518 49.9238C154.601 49.8401 154.718 49.7982 154.867 49.7982C155.016 49.7982 155.127 49.8401 155.202 49.9238C155.276 49.9983 155.313 50.1053 155.313 50.2449V50.3566C155.313 50.4962 155.276 50.6079 155.202 50.6916C155.127 50.7661 155.016 50.8033 154.867 50.8033Z" fill="white"/>
<path d="M159.596 59.0258C158.917 59.0258 158.396 58.835 158.033 58.4535C157.67 58.0626 157.488 57.4902 157.488 56.7364V54.3631C157.488 53.6 157.67 53.0276 158.033 52.646C158.396 52.2552 158.917 52.0597 159.596 52.0597C160.285 52.0597 160.806 52.2552 161.16 52.646C161.523 53.0276 161.704 53.6 161.704 54.3631V56.7364C161.704 57.4902 161.523 58.0626 161.16 58.4535C160.806 58.835 160.285 59.0258 159.596 59.0258ZM159.596 58.4395C160.099 58.4395 160.471 58.2952 160.713 58.0067C160.964 57.7089 161.09 57.2715 161.09 56.6945V54.405C161.09 53.8094 160.964 53.3673 160.713 53.0788C160.471 52.7903 160.099 52.646 159.596 52.646C159.103 52.646 158.731 52.7903 158.48 53.0788C158.228 53.3673 158.103 53.8094 158.103 54.405V56.6945C158.103 57.2715 158.228 57.7089 158.48 58.0067C158.731 58.2952 159.103 58.4395 159.596 58.4395Z" fill="white"/>
<path d="M169.131 59.0258C168.433 59.0258 167.907 58.835 167.554 58.4535C167.2 58.0719 167.023 57.4949 167.023 56.7224V54.3911C167.023 53.6093 167.2 53.0276 167.554 52.646C167.907 52.2552 168.424 52.0597 169.103 52.0597C169.531 52.0597 169.89 52.1388 170.178 52.297C170.476 52.4553 170.699 52.6833 170.848 52.9811C170.997 53.2696 171.062 53.614 171.044 54.0141C171.044 54.1072 171.016 54.1537 170.96 54.1537H170.527C170.471 54.1537 170.444 54.1212 170.444 54.056C170.462 53.6186 170.35 53.2743 170.108 53.023C169.876 52.7717 169.541 52.646 169.103 52.646C168.61 52.646 168.242 52.7903 168.001 53.0788C167.759 53.358 167.638 53.8047 167.638 54.419V56.6945C167.638 57.2901 167.759 57.7322 168.001 58.0207C168.252 58.2999 168.629 58.4395 169.131 58.4395C169.578 58.4395 169.908 58.3185 170.122 58.0765C170.346 57.8253 170.453 57.4576 170.444 56.9737C170.444 56.8992 170.467 56.862 170.513 56.862H170.96C171.016 56.862 171.044 56.8946 171.044 56.9597C171.044 57.6205 170.886 58.1277 170.569 58.4814C170.253 58.835 169.773 59.0165 169.131 59.0258Z" fill="white"/>
<path d="M173.399 58.9141C173.352 58.9141 173.329 58.8862 173.329 58.8304V53.7768C173.329 53.479 173.324 53.2091 173.315 52.9671C173.306 52.7158 173.292 52.4878 173.273 52.2831C173.264 52.2086 173.287 52.1714 173.343 52.1714H173.762C173.808 52.1714 173.832 52.1993 173.832 52.2552C173.86 52.4692 173.878 52.6972 173.887 52.9392C173.906 53.1812 173.915 53.3859 173.915 53.5535L173.943 53.7629V58.8304C173.943 58.8862 173.915 58.9141 173.86 58.9141H173.399ZM173.832 54.056L173.818 53.4278C173.957 53.2138 174.12 53.0044 174.306 52.7996C174.502 52.5856 174.711 52.4087 174.934 52.2691C175.167 52.1295 175.409 52.0597 175.66 52.0597C175.726 52.0597 175.781 52.0644 175.828 52.0737C175.884 52.0737 175.93 52.083 175.967 52.1016C175.995 52.1109 176.014 52.1249 176.023 52.1435C176.033 52.1528 176.037 52.1714 176.037 52.1993C176.047 52.3017 176.047 52.3994 176.037 52.4925C176.037 52.5762 176.033 52.6647 176.023 52.7577C176.023 52.8136 175.986 52.8368 175.912 52.8275C175.865 52.8182 175.814 52.8136 175.758 52.8136C175.712 52.8043 175.651 52.7996 175.577 52.7996C175.363 52.7996 175.153 52.8555 174.948 52.9671C174.744 53.0788 174.544 53.2324 174.348 53.4278C174.162 53.614 173.99 53.8234 173.832 54.056Z" fill="white"/>
<path d="M179.593 59.0258C178.904 59.0258 178.383 58.835 178.029 58.4535C177.676 58.0626 177.499 57.4809 177.499 56.7084V54.3771C177.499 53.5953 177.676 53.0137 178.029 52.6321C178.383 52.2505 178.886 52.0597 179.537 52.0597C180.189 52.0597 180.686 52.2552 181.031 52.646C181.384 53.0276 181.561 53.5953 181.561 54.3492V55.5079C181.561 55.573 181.538 55.6056 181.491 55.6056H178.113V56.6386C178.113 57.2529 178.234 57.7089 178.476 58.0067C178.727 58.2952 179.104 58.4395 179.607 58.4395C180.035 58.4395 180.351 58.3371 180.556 58.1324C180.761 57.9183 180.863 57.6159 180.863 57.225C180.863 57.1598 180.887 57.1272 180.933 57.1272H181.394C181.431 57.1272 181.454 57.1552 181.464 57.211C181.473 57.788 181.315 58.2348 180.989 58.5512C180.672 58.8676 180.207 59.0258 179.593 59.0258ZM178.113 55.0332H180.947V54.3911C180.947 53.8047 180.831 53.3673 180.598 53.0788C180.365 52.7903 180.012 52.646 179.537 52.646C179.072 52.646 178.718 52.7903 178.476 53.0788C178.234 53.3673 178.113 53.8047 178.113 54.3911V55.0332ZM179.007 51.0686C178.941 51.0686 178.923 51.0406 178.951 50.9848L179.858 49.3235C179.886 49.277 179.923 49.2537 179.97 49.2537H180.458C180.486 49.2537 180.505 49.263 180.514 49.2817C180.524 49.3003 180.519 49.3235 180.5 49.3515L179.495 51.0127C179.477 51.0499 179.439 51.0686 179.383 51.0686H179.007Z" fill="white"/>
<path d="M186.888 58.9141C186.851 58.9141 186.823 58.8816 186.804 58.8164C186.795 58.621 186.781 58.4023 186.762 58.1603C186.744 57.9183 186.734 57.7043 186.734 57.5181L186.706 57.3785V54.0141C186.706 53.5116 186.627 53.1579 186.469 52.9532C186.311 52.7484 186.018 52.646 185.59 52.646C184.798 52.646 184.426 53.0369 184.473 53.8187C184.473 53.8745 184.445 53.9025 184.389 53.9025H183.956C183.9 53.9025 183.868 53.8606 183.858 53.7768C183.821 53.237 183.952 52.8182 184.249 52.5204C184.556 52.2226 185.008 52.069 185.603 52.0597C186.208 52.0597 186.646 52.2086 186.916 52.5064C187.186 52.8043 187.321 53.3022 187.321 54.0002V57.3087C187.321 57.6159 187.325 57.8951 187.335 58.1463C187.353 58.3976 187.367 58.621 187.376 58.8164C187.386 58.8816 187.362 58.9141 187.307 58.9141H186.888ZM184.878 59.0258C184.459 59.0258 184.138 58.8723 183.914 58.5651C183.7 58.258 183.593 57.8253 183.593 57.2669C183.593 56.6433 183.751 56.1547 184.068 55.801C184.384 55.4381 184.901 55.2147 185.617 55.131L186.804 54.9914V55.5079L185.645 55.6475C185.133 55.7033 184.766 55.8662 184.542 56.1361C184.319 56.3967 184.207 56.7643 184.207 57.2389C184.207 57.6205 184.273 57.9183 184.403 58.1324C184.542 58.3464 184.752 58.4535 185.031 58.4535C185.292 58.4535 185.562 58.3557 185.841 58.1603C186.12 57.9649 186.45 57.6252 186.832 57.1412L186.846 57.7555C186.455 58.2208 186.111 58.5512 185.813 58.7466C185.524 58.9328 185.213 59.0258 184.878 59.0258Z" fill="white"/>
<path d="M191.606 59.0258C191.112 59.0258 190.754 58.8816 190.531 58.5931C190.307 58.2952 190.196 57.8066 190.196 57.1272V52.7438H189.358C189.302 52.7438 189.274 52.7205 189.274 52.674V52.2552C189.274 52.1993 189.302 52.1714 189.358 52.1714H190.21L190.279 50.3705C190.289 50.324 190.317 50.3007 190.363 50.3007H190.74C190.787 50.3007 190.81 50.324 190.81 50.3705V52.1714H192.569C192.625 52.1714 192.653 52.1993 192.653 52.2552V52.674C192.653 52.7205 192.625 52.7438 192.569 52.7438H190.81V57.1133C190.81 57.5879 190.88 57.9323 191.019 58.1463C191.159 58.3511 191.392 58.4535 191.717 58.4535C191.866 58.4535 192.02 58.4348 192.178 58.3976C192.336 58.3604 192.48 58.3139 192.611 58.258C192.667 58.2301 192.695 58.2534 192.695 58.3278V58.7327C192.695 58.7885 192.671 58.8211 192.625 58.8304C192.494 58.8955 192.336 58.9421 192.15 58.97C191.973 59.0072 191.792 59.0258 191.606 59.0258Z" fill="white"/>
<path d="M194.827 58.9141C194.781 58.9141 194.757 58.8862 194.757 58.8304V52.2552C194.757 52.1993 194.781 52.1714 194.827 52.1714H195.288C195.344 52.1714 195.372 52.1993 195.372 52.2552V58.8304C195.372 58.8862 195.344 58.9141 195.288 58.9141H194.827ZM195.078 50.8033C194.929 50.8033 194.813 50.7661 194.729 50.6916C194.655 50.6079 194.618 50.4962 194.618 50.3566V50.2449C194.618 50.1053 194.655 49.9983 194.729 49.9238C194.813 49.8401 194.929 49.7982 195.078 49.7982C195.227 49.7982 195.339 49.8401 195.413 49.9238C195.488 49.9983 195.525 50.1053 195.525 50.2449V50.3566C195.525 50.4962 195.488 50.6079 195.413 50.6916C195.339 50.7661 195.227 50.8033 195.078 50.8033Z" fill="white"/>
<path d="M198.3 58.9141C198.273 58.9141 198.249 58.9048 198.231 58.8862C198.221 58.8676 198.217 58.849 198.217 58.8304V52.7438H197.365C197.319 52.7438 197.295 52.7205 197.295 52.674V52.2552C197.295 52.1993 197.319 52.1714 197.365 52.1714H198.217V51.1942C198.217 50.5334 198.342 50.0495 198.594 49.7423C198.854 49.4259 199.254 49.2677 199.794 49.2677C199.99 49.2677 200.176 49.2863 200.353 49.3235C200.539 49.3515 200.688 49.384 200.799 49.4213C200.855 49.4585 200.883 49.505 200.883 49.5609V49.9517C200.883 50.0169 200.841 50.0309 200.757 49.9936C200.627 49.9471 200.483 49.9099 200.325 49.8819C200.176 49.854 200.027 49.8401 199.878 49.8401C199.496 49.8401 199.226 49.9471 199.068 50.1611C198.91 50.3752 198.831 50.7242 198.831 51.2082V52.1714H200.506C200.562 52.1714 200.59 52.1993 200.59 52.2552V52.674C200.59 52.7205 200.562 52.7438 200.506 52.7438H198.831V58.8304C198.831 58.849 198.826 58.8676 198.817 58.8862C198.808 58.9048 198.789 58.9141 198.761 58.9141H198.3Z" fill="white"/>
</svg>
